<svg xmlns="http://www.w3.org/2000/svg" viewBox="0 0 110.5 32.25"><defs><style>.cls-1{fill:#fff;}</style></defs><g id="Layer_2" data-name="Layer 2"><g id="Layer_4" data-name="Layer 4"><path class="cls-1" d="M27.77,25.05a14.38,14.38,0,0,1-5.71,3.58,13.92,13.92,0,0,1-7.86.4,15.14,15.14,0,0,1-6.1-3,13.93,13.93,0,0,1-4-5.21,14.85,14.85,0,0,1-1.26-7.8A13.9,13.9,0,0,1,10,2,14.16,14.16,0,0,1,13.24.6,14.81,14.81,0,0,1,17.35,0a14.26,14.26,0,0,1,8.43,2.62A14.87,14.87,0,0,1,31.72,18,14.22,14.22,0,0,1,27.77,25.05ZM6.87,6.8A13.16,13.16,0,0,0,4.25,14H8.2A24.08,24.08,0,0,1,9.39,7.46,23.4,23.4,0,0,1,6.87,6.8ZM4.28,15.36a11.81,11.81,0,0,0,2.59,7.13,6.17,6.17,0,0,1,1.26-.39,7.6,7.6,0,0,0,1.26-.37A20.71,20.71,0,0,1,8.2,15.36Zm3.49,8.23a11.59,11.59,0,0,0,4.54,3.18,12.25,12.25,0,0,1-2.39-3.68C9.44,23.18,8.72,23.35,7.77,23.59Zm4.51-21A13.18,13.18,0,0,0,7.83,5.71c1.33.31,2,.46,2.12.46A16.52,16.52,0,0,1,12.28,2.55Zm4.44,5.68a38.6,38.6,0,0,1-5.9-.5A18.08,18.08,0,0,0,9.59,14h7.13Zm0,7.13H9.62s0,0,0,.1a16.9,16.9,0,0,0,1.23,6.1c1.66-.3,6.12,2.73,5.9-.53Zm0,7.07a36.68,36.68,0,0,0-5.4.4c1.32,2.83,3.12,4.47,5.4,4.94Zm0-15.53V4.21c0-1.08,0-1.95,0-2.62-2.26.49-4,2.11-5.34,4.88C13.49,6.71,15.29,6.86,16.72,6.9Zm1.33-5.31V4.28c0,1.08,0,2,0,2.62a43.46,43.46,0,0,0,5.31-.46C22,3.67,20.24,2.06,18.05,1.59Zm0,6.64q0,1.06,0,2.85V14h7.13a18.63,18.63,0,0,0-.73-4.94,3.26,3.26,0,0,0-.56-1.36l-.17,0A36.56,36.56,0,0,1,18.08,8.23Zm0,12.8c0,2,.16,1,6,.53a20.47,20.47,0,0,0,1.16-6.2h-7.1s0,0,0,.1Zm0,6.74c2.17-.47,4-2.11,5.44-4.94a39.9,39.9,0,0,0-5.41-.4c0,.66,0,1.55,0,2.65Zm4.38-1A12.32,12.32,0,0,0,27,23.59c-.89-.24-1.61-.41-2.16-.5A13.66,13.66,0,0,1,22.43,26.81ZM22.5,2.59a14.87,14.87,0,0,1,2.32,3.58l2.09-.46a11.37,11.37,0,0,0-3.22-2.56A4.06,4.06,0,0,0,22.5,2.59Zm8,11.44A12.68,12.68,0,0,0,27.84,6.8a21.41,21.41,0,0,1-2.46.66A22.81,22.81,0,0,1,26.54,14Zm-2.62,8.46a12.17,12.17,0,0,0,2.62-7.13H26.58a27.43,27.43,0,0,1-1.16,6.47A14.09,14.09,0,0,1,27.87,22.49Z"/><path class="cls-1" d="M49.71,28.08l-.09.19s0,0,0,.05l-.06.09-.07.09,0,.05,0,.06,0,.06s0,0,0,0l0,0a7.62,7.62,0,0,1-.38.69,2.85,2.85,0,0,1-.47.57h0a.28.28,0,0,1-.13.11l-.18.05h-.05l0,0-.13,0-.13,0c-.07,0-.11,0-.13-.07a.43.43,0,0,1-.11-.21.69.69,0,0,1,0-.25,1.34,1.34,0,0,1,0-.28l0-.31c.06-.43.13-.85.19-1.25s.13-.82.2-1.26c0-.16,0-.33.08-.5a4,4,0,0,1,.09-.5c0-.13.06-.25.08-.38s0-.24.08-.35V24.8s0-.06,0-.09,0,0,0,0l0,0a.41.41,0,0,0,.22,0,.37.37,0,0,1,.23,0,0,0,0,0,1,0,0s0,0,0,0,0,0,0,0a.11.11,0,0,1,0,.09.49.49,0,0,1,0,.12s0,.08,0,.13a.61.61,0,0,0,0,.12,2.29,2.29,0,0,0-.08.28,2.21,2.21,0,0,0-.07.3.78.78,0,0,1-.07.25.4.4,0,0,1,0,.15,1,1,0,0,0-.05.16.38.38,0,0,0,0,.1l0,.08a.16.16,0,0,0,0,.08c0,.07,0,.15-.06.23s0,.17,0,.26,0,.17,0,.26a1,1,0,0,0,0,.23c0,.06,0,.11,0,.15a.5.5,0,0,1,0,.12.5.5,0,0,1,0,.12s0,.09,0,.15c0,.26-.08.53-.1.81s-.05.57-.08.84l.09-.09.08-.09a2.83,2.83,0,0,0,.2-.28,3.28,3.28,0,0,0,.2-.31l.14-.21a1.43,1.43,0,0,1,.14-.2l.12-.22.14-.19a.19.19,0,0,1,0-.09l.06-.07a0,0,0,0,1,0,0h0c0-.05,0-.08,0-.09l.34-.56c.11-.2.22-.38.33-.57a0,0,0,0,1,0,0l0-.05s0,0,0,0a0,0,0,0,0,0,0l.13-.16a.18.18,0,0,1,0,.09l-.08.07s0,0,0,0,0,0,0,0a.29.29,0,0,0,.07-.1.86.86,0,0,1,.07-.1c0-.07.07-.13.1-.19a1.71,1.71,0,0,1,.11-.14.3.3,0,0,0,.08-.17h0l0,0a.1.1,0,0,1,0,.07.13.13,0,0,0,0,.09.13.13,0,0,0,.06-.08.33.33,0,0,0,0-.12l.07-.12a.35.35,0,0,0,.06-.14l0-.06a.62.62,0,0,0,.09-.12l.08-.12,0-.07a.51.51,0,0,1,.09-.18.5.5,0,0,0,.11-.16h0s0,0,0,0l.18-.3a.06.06,0,0,1,0,.07.09.09,0,0,0,0,.06l.09-.12a.6.6,0,0,0,.08-.16s0,0,.05,0,0-.06,0-.06a.16.16,0,0,1,0-.09l.07-.08a.09.09,0,0,1,0,.06.14.14,0,0,0,0,.07s0,0,0,.06a.05.05,0,0,0,0,0s0,0,0,0v.05l0,0v0a.36.36,0,0,1,0-.09.25.25,0,0,0,0-.09h0a.11.11,0,0,1,0-.05l0-.06s0,0,0,0a.59.59,0,0,1,0,.08.07.07,0,0,1,0-.08s0,0,0,0a.19.19,0,0,0,0-.09s0-.06,0-.06l0-.07,0,0h0a.12.12,0,0,0,0-.08s0,0,0,0,0,0,0,0,0,0,0,0v0s0,0,0,0,0,0,0-.05l-.1.12h0s0,0,0,0l0,0,0,0a0,0,0,0,1,0-.06.16.16,0,0,0,.06-.08.56.56,0,0,0,.09-.14.15.15,0,0,1,.15-.09h0s0,0,0,0h0s0,0,0,0a0,0,0,0,1,0,0s0,0,0,0a0,0,0,0,1,0,0v0h.05v0a.08.08,0,0,1,0,.08.3.3,0,0,0,0,.08.08.08,0,0,1,0,0,.05.05,0,0,0,0,0s0,0,0,0,0,0,0,0l0,0a.19.19,0,0,1,0,.07.2.2,0,0,0,0,.08v0a.13.13,0,0,1,0,.06.43.43,0,0,0,0,.05l0,.13,0,0a.06.06,0,0,1,0,0s0,0,0,0l0,0a.08.08,0,0,0,0,0h0s0,0,0,0a1.14,1.14,0,0,1-.1.19l-.12.16a0,0,0,0,1,0,0h0a1.48,1.48,0,0,0-.22.29,2.23,2.23,0,0,1-.2.3,1.19,1.19,0,0,0-.09.15.69.69,0,0,1-.11.13l-.26.43c-.08.15-.17.29-.25.43s0,0-.05,0a.09.09,0,0,1,0,.09.21.21,0,0,0-.06.08.58.58,0,0,0-.05.09l-.06.13-.06.13s0,.06-.05.07,0,.06-.06.11l-.09.15-.09.14a.37.37,0,0,0-.06.1Zm-.41.77s0,0,0,0a0,0,0,0,0,0,0s0,0,0,0ZM49.85,27h0v0s0,0,0,0h0l0,0a.28.28,0,0,0,0-.11.22.22,0,0,1,0-.08,0,0,0,0,1,0,0h0Zm0,0h0v0s0,0,0,0h0l0,0a1,1,0,0,0,0-.1l0-.08h0Zm.45-.5,0,0h0v0h0l0,.06v0s0,0,0,0h0v0l0,.07h0l0,0h0l0-.05,0,0,.08-.15h0Zm-.12.25h0l0-.05,0,0,.08-.15h0l0,0,0,0h0v0h0l0,.06v0s0,0,0,0h0v0l0,.07Zm.17-.54s0,0,0,0l0,0s0,0,0,0,0,0,0,0h0Zm.11.28h0v0h0l0,0h0l0-.05s0,0,0,0l0,0h0v0l0,0-.05.08s0,0,0,0h0v0l0,0a0,0,0,0,0,0,0v0h0Zm0-.13v0l0,0a0,0,0,0,0,0,0v0h0v0h0l0,0h0l0-.05s0,0,0,0l0,0h0v0l0,0-.05.08s0,0,0,0h0Zm0,0v0s0,0,0,0h0v0Zm0,0v0s0,0,0,0h0v0Zm0-.38a.06.06,0,0,1,0,0l0-.05,0,0A.14.14,0,0,1,50.49,26Zm.08.23s0,0,0,0l0,0h0a0,0,0,0,0,0,0h0l0-.07h0Zm0,0s0,0,0,0l0,0h0a0,0,0,0,0,0,0h0l0-.07h0Zm0-.37s0,0,0,0,0,0,0,0,0,0,0,.06S50.57,25.84,50.57,25.83Zm.38-.46h0l0,0v0h0v0h0v0h0Zm0,.09v0h0v0h0l0,0v0Zm0-.09h0Zm.09-.25,0,0,.15-.22c.05-.08.1-.15.14-.23a.13.13,0,0,1,0,.08.07.07,0,0,0,0,.06s0,0,0,0,0,0,0,0l0,0s0,0,0,0,0,0,0,0,0,0,0,0h0l0,0S51.05,25.12,51,25.12Zm0,.18h0l0,0v0h0v0a0,0,0,0,0,0,0A0,0,0,0,0,51.07,25.3Zm0,0h0l0,0v0h0v0a0,0,0,0,0,0,0A0,0,0,0,0,51.07,25.3Zm.44-.23h0v0h0s0,0,0,0h0a0,0,0,0,0,0,0,0,0,0,0,1,0,0h0s0,0,0,0h0S51.52,25.07,51.51,25.07Zm0,0h0v0h0s0,0,0,0h0a0,0,0,0,0,0,0,0,0,0,0,1,0,0h0s0,0,0,0h0Zm0-.08h0v0h0s0,0,0,0Zm0,0h0v0h0Zm.05-.1h0v0h0S51.59,24.92,51.6,24.92Zm0,0h0s0,0,0,0h0v0h0Zm0-.52s0,0,0,0l0,0c0-.05,0-.08,0-.08S51.67,24.35,51.66,24.36Zm0-.11V24.2s0,0,0,0,0,0,0,0a0,0,0,0,1,0,0,.15.15,0,0,0,0-.07.18.18,0,0,1,0,.06A.16.16,0,0,1,51.65,24.25Zm.07-.12s0,0,0,0l0,0,0,0Zm0,.06h0a0,0,0,0,1,0,0h0v0h0s0,0,0,0Zm0,0v0h0a0,0,0,0,1,0,0h0v0Zm0-.09h0v0h0s0,0,0,0h0l0,0h0l0,0h0s0,0,0,0l0,0v0h0v0h0v0h0Zm0,0h0v0h0s0,0,0,0h0l0,0h0l0,0h0s0,0,0,0l0,0v0h0v0h0v0h0Zm.07-.17s0,0,0,0v0s0,0,0,0,0,0,0,0,0,0,0,0S51.84,23.94,51.86,24Zm.14.11,0,0h0v0Zm0,0h0v0Z"/><path class="cls-1" d="M50.63,28.49s0,0,0,0v0s0-.05,0-.08a.05.05,0,0,1,0-.05s0,0,0,0,0,0,0,0l0-.07s0,0,0-.05a2.38,2.38,0,0,1,.16-.32l.17-.32a.36.36,0,0,0,.07-.1.3.3,0,0,0,0-.1h0c0-.05,0-.07.11-.06l.18.05a.07.07,0,0,1,0,0,.07.07,0,0,1,0,.05,0,0,0,0,0,0,0v0a.37.37,0,0,0-.08.18.71.71,0,0,1-.08.18s0,0,0,0,0,0,0,0a.2.2,0,0,0,0,.09.61.61,0,0,1,0,.12l-.11.24q0,.11-.09.24c0,.08,0,.15,0,.21a.25.25,0,0,0,0,.2,2,2,0,0,0,.32-.11l.28-.15.21-.15.06,0,.25-.19.21-.17.08-.05.08-.05.12-.1.12-.09,0,0,0,0,.05,0a.1.1,0,0,1,.08-.06.08.08,0,0,0,.07-.07s0,0,0,0,0,0,0,0,0,0,0,0l0,0a.1.1,0,0,1,0,0s0,0,0,0,0-.05,0-.05a.13.13,0,0,1,0,.05,0,0,0,0,1,0,0s0,0,0,.05a0,0,0,0,0,0,.05l0,0v0h0s0,0,0,0v0s0,0,0,0,0,0,0,0,0,0,0,0,0,0,0,0A.12.12,0,0,0,53,28,.09.09,0,0,1,53,28h0s0,0,0,0a.1.1,0,0,1,0,0l-.05.07,0,.05s0,0,0,0,0,0-.07,0l-.07,0-.09.1-.08.06-.07.06h0s0,0,0,0h0a0,0,0,0,0,0,0h0l0,.06a.22.22,0,0,1-.09.07v0s0,0,0,0v0h0s0,0,0,0h0s0,0,0,0l0,0-.05,0s0,0,0,0l0,0,0,0,0,0-.06,0a.06.06,0,0,0,0,0h0l0,0a.09.09,0,0,1-.06,0,.18.18,0,0,1-.09.08l-.12.05a.52.52,0,0,1-.19.08l-.19,0a.72.72,0,0,1-.21,0l-.16,0a.18.18,0,0,1-.11,0,.2.2,0,0,1-.09-.09.35.35,0,0,0-.06-.09s0,0,0,0,0,0,0,0h0v0l0,0s0-.05,0-.06,0,0,0-.07,0,0,0,.07,0,0,0,0a0,0,0,0,1,0,0,.22.22,0,0,1,0-.1h0l0-.06a.07.07,0,0,0,0-.06h0a0,0,0,0,1,0,0,.11.11,0,0,1,0-.1v0l0,0A0,0,0,0,0,50.63,28.49Zm1.28-1.79s0,0,0,0v0a.16.16,0,0,0-.06.08.07.07,0,0,1-.07,0,.18.18,0,0,0-.07,0h0l0,0s0,0,0,0l-.12,0-.09-.05a.57.57,0,0,1,0-.13c0-.05,0-.06.12-.05l0,0h0l.16,0,.17,0S51.88,26.7,51.91,26.7Zm.24,2h0a0,0,0,0,0,0,0ZM53,28s0,0,0,0,0,0,0,0,0,0,0,0A0,0,0,0,0,53,28Zm.08,0s0,0,0,0Z"/><path class="cls-1" d="M56.23,28.26s0,0-.07,0a.27.27,0,0,0-.07.08v0l-.11.1a1.36,1.36,0,0,0-.12.12h0l0,0s0,0,0,0a.1.1,0,0,0-.06.05.1.1,0,0,1,0,0l-.06.06-.07.06s0,0,0,0a.19.19,0,0,1-.1.05.56.56,0,0,0-.15.1.27.27,0,0,1-.14.05H55A.08.08,0,0,1,55,29l-.16,0a.2.2,0,0,1-.15,0,.1.1,0,0,0-.06-.05l-.07,0a.1.1,0,0,1-.05-.07.34.34,0,0,1-.13-.16.86.86,0,0,1,0-.24,1.32,1.32,0,0,1,0-.28,1.36,1.36,0,0,1,.06-.29.8.8,0,0,0-.21.2l-.2.24-.09.11-.09.09a3.45,3.45,0,0,1-.25.27v0a.67.67,0,0,0-.14.11l-.16.1a.37.37,0,0,1-.17,0,.25.25,0,0,1-.19-.06.08.08,0,0,1-.07,0,.1.1,0,0,0-.06,0,.26.26,0,0,1-.11-.09.72.72,0,0,1,0-.17.23.23,0,0,1,0-.14.53.53,0,0,1,.05-.15.81.81,0,0,1,.11-.27,2.52,2.52,0,0,1,.15-.24c.08-.12.17-.23.26-.34l.29-.3a.24.24,0,0,0,.09-.06.27.27,0,0,1,.12-.06.09.09,0,0,0,.08,0,0,0,0,0,1,.08,0,.89.89,0,0,1,.29.08.34.34,0,0,1,.17.2l.1-.07.1-.05s0,0,0,0l0,0a.21.21,0,0,1,.15,0,.57.57,0,0,0,.13.08h0l0,0,0,0a.81.81,0,0,1,0,.3,2.74,2.74,0,0,1-.11.28q0,.16-.09.39a.73.73,0,0,0,0,.36,1.14,1.14,0,0,0,.45-.14l.37-.21.13-.09a.52.52,0,0,0,.11-.1h0s.07,0,.15-.1l.24-.2.22-.19c.07-.05.11-.07.12-.05a0,0,0,0,0,0,0h0v0s0,0,0,0v0l0,0v0s0,0,0,0l0,0,0,0a.39.39,0,0,0,0,.06l0,0h0a.1.1,0,0,1,0,.05.1.1,0,0,0,0,.06s0,0,0,0Zm-2.14-.66a.49.49,0,0,0-.06-.17s-.08-.05-.15,0l-.12.14,0,0,0,0,0,.05,0,0-.11.13a1.81,1.81,0,0,0-.16.25c-.06.09-.1.17-.15.26l0,.07a.19.19,0,0,0,0,.09s0,0,0,0h0a.26.26,0,0,1-.05.14.34.34,0,0,0,0,.16l.13-.08.12-.09c.15-.14.29-.3.43-.46l.41-.49,0,0,0,0h0A.1.1,0,0,0,54.09,27.6Z"/><path class="cls-1" d="M55.67,29.86s0,0,0,.05a.07.07,0,0,1,0-.05,0,0,0,0,0,0,0,.31.31,0,0,0,.1-.1,0,0,0,0,0,0,0,.18.18,0,0,0-.07.1.15.15,0,0,0,.06-.05l.07-.07a.19.19,0,0,1-.06.07.13.13,0,0,0,0,.1s0,0,0,0a.09.09,0,0,1,.07-.06l0,0,0-.05h0l0,0h0s0,0,0,0,0,0,0,0a1.06,1.06,0,0,0,.15-.15.54.54,0,0,1,.15-.15.74.74,0,0,1,0-.14.36.36,0,0,0-.07.1l-.06.1s0,0,0,0a.05.05,0,0,0,0,0s0,0,0,0,0,0,0,0a0,0,0,0,0,0,0,.1.1,0,0,0-.06,0l-.07.07s0,0,0,0,0,0,0,0l0,0s0,0,0,0h0a0,0,0,0,1,0,0s0,0,0,0a0,0,0,0,1,0,0,0,0,0,0,0,0,0l0,0v0a0,0,0,0,0,0,0s0,0,0,0a.07.07,0,0,1,0-.05l0-.06s0,0,0,0h0a.08.08,0,0,1,0,0l0,0s0,0,0,0,0,0,0,0l.08-.08.06-.08v0l.08-.07,0-.07h0a.1.1,0,0,0,.05-.11.29.29,0,0,1,0-.13,2.17,2.17,0,0,0,.08-.3c0-.11.06-.21.08-.31h0a2.47,2.47,0,0,1,.1-.29,1.55,1.55,0,0,0,.07-.31,1.36,1.36,0,0,1,0-.17.28.28,0,0,1,.1-.14h.09s0,0,.07,0l.12,0a.16.16,0,0,1,.11,0,.34.34,0,0,1,0,.2.72.72,0,0,0,0,.21.79.79,0,0,0-.06.22.93.93,0,0,1-.07.2,3.61,3.61,0,0,0,.39-.22h0s0,0,0,0a.49.49,0,0,1,.16-.1l.17-.11h0s0,0,0,0a0,0,0,0,1,0,0,.12.12,0,0,0,.09,0,.6.6,0,0,0,.08-.08s0,0,0,0h0s0,0,0,0a.08.08,0,0,0,0,0l.05,0a.05.05,0,0,0,0,0s.06,0,.07,0h0l.13-.06a.08.08,0,0,0,.07-.07s0,0,0,0l0,0,0,0h0a.25.25,0,0,1,.17-.07.47.47,0,0,0,.19-.06.06.06,0,0,1,0,.07.15.15,0,0,0,0,.08l0,0v0h0v0s0,0,0,0,0,0,.05,0,0,0-.05.05a.05.05,0,0,0,0,.06l-.08,0-.08.05s-.06,0-.09,0a.23.23,0,0,1-.1.07h0a0,0,0,0,0,0,0,.05.05,0,0,0-.05,0h0s0,0,0,0,0,0,0,0a0,0,0,0,1,0,0s0,0,0,0a.1.1,0,0,0-.06.05s0,0,0,0h0l0,0s0,0-.08,0h0s0,0,0,0l-.07,0a.21.21,0,0,1-.08.06h0s0,0,0,0l0,0s0,0,0,0,0,0,0,0a.13.13,0,0,1-.09.07.19.19,0,0,0-.09.09s0,0-.09,0,0,0,0,0a.05.05,0,0,0-.06.06s0,0-.06,0l0,.06h0a0,0,0,0,0,0,0l0,0s0,0-.05,0a.2.2,0,0,1-.09.09.18.18,0,0,0-.07.08h0l-.11.16-.1.15s0,.05,0,.05a.29.29,0,0,1,0,.09.12.12,0,0,1,0,.08s0,0,0,.05a.07.07,0,0,0,0,.06h0a0,0,0,0,1,0,0,0,0,0,0,1,0,.05s0,0,0,.05h0v0h0l0,.06a0,0,0,0,0,0,.05h0v0l0,.06s0,0,0,.07l0-.05s0,0,0,0a.11.11,0,0,0,0,.07.07.07,0,0,1,0,.05h0a.08.08,0,0,0,0,0s0,.05,0,.07a.17.17,0,0,1,0,.07.08.08,0,0,1,0,0,.14.14,0,0,1,0,.09l-.06.08h0l0,.07a.06.06,0,0,1,0,0s0,0,0,0,0,0,0,0h0s0,0,0,0,0,0,0,0v0s0,0,0,0,0,0,0,0a0,0,0,0,1,0,0,0,0,0,0,0,0,0h0l0,0s0,0,0,0l0,0a.1.1,0,0,1,0,.06.07.07,0,0,0,0,.07v0h0a0,0,0,0,1,0,0l0-.05h0s0,0,0,0h0s0,0,0,0h0a.19.19,0,0,0-.05.09.47.47,0,0,1,0,.1l0,0a0,0,0,0,0,0,0s0,0,0,0,0,0,0,0a.06.06,0,0,1,0,.06l0,0s0,0,0,0,0,0-.05,0,0,.06,0,.07,0,0,0,0h0s0,0,0,0,0,0,0,0,0,0,0,0,0,0,0,0,0,0,0,0,0,0,0,0a0,0,0,0,1,0,0h0l-.09.14s0,0,0,0,0,0,0,0,0,0,0,0h0a.56.56,0,0,0-.11.11h0l-.06.09a.41.41,0,0,0-.05.09h0a.75.75,0,0,1-.12.14l-.16.12h0l0,0,0,0-.16,0-.11,0h-.11a.29.29,0,0,0-.11,0l-.1,0h-.07a.08.08,0,0,1,0-.07l0,.05v0s0,0,0,0h0a.22.22,0,0,0,0-.08V32h0a2.47,2.47,0,0,1,.1-.35,1.37,1.37,0,0,1,.16-.32s0,0,0,0a0,0,0,0,0,0,0,.21.21,0,0,0,0-.12l.07-.11a.37.37,0,0,1,.06-.1,1.12,1.12,0,0,1,0,.13.35.35,0,0,0-.05.13s0,0,0,0,0,0,0,.05a.1.1,0,0,0,0,.05l0-.05a0,0,0,0,0,0-.06.67.67,0,0,1,.08-.17l.09-.18s0,0,0,0a.08.08,0,0,1,0-.07h0s0,0,0,0v-.05s0,0,0,0h0a0,0,0,0,0,0,0h0v0a.2.2,0,0,0,.09-.13s0,0,0,0a.16.16,0,0,1,0-.06.16.16,0,0,1,0,.11.13.13,0,0,0-.05.11,1.27,1.27,0,0,0-.13.19,2.25,2.25,0,0,1-.12.21.82.82,0,0,0,.11-.17c0-.05.07-.1.1-.16s.05,0,.05-.09h0s0,0,0,0a.35.35,0,0,1,.07-.12.34.34,0,0,0,.06-.12l0,0s0,0,0,0h0s0,0,0,0a0,0,0,0,1,0,0,.06.06,0,0,0,0,0h0l0,0s0,0,0,0l0,0s0-.06,0-.07a.13.13,0,0,0,.05-.07.08.08,0,0,1,0-.06l0,0s0,0,0,0a.07.07,0,0,1,0,0,.09.09,0,0,1,0,.09.21.21,0,0,0-.06.1.17.17,0,0,0,.06-.06l.08-.08a.48.48,0,0,1-.09.11.32.32,0,0,0-.08.13h0s0,0,0,0,0,0,0,0l0,0s0,0,0,0h0l0,0,0,0s0,0,0,0l0,0s0,0,0,0,0,0,0,0,0,0,0,0,0,0,0,0,0,0,0-.05,0,0,0,0,0,0,0,0h0l0,0,0,0a.1.1,0,0,0,0,0s0,0,.06-.05,0,0,0,0,0,0,0,0l-.07.08s0,0,0,0h0A.09.09,0,0,0,55.67,29.86Zm-1.3,2.22s0,0,0,0,0,0,0,0Zm.21-.57s0,0,0,0a.07.07,0,0,0,0-.06l0,.06S54.57,31.5,54.58,31.51Zm0-.1s0,0,0,0,0,0,0,0,0,0,0,0Zm1.31-1.22L56,30a1.59,1.59,0,0,1,.08-.18,0,0,0,0,0,0,0,.08.08,0,0,1,0,0v0l0,0a.05.05,0,0,1,0,0,.6.6,0,0,1-.09.13l-.09.11,0,0a.05.05,0,0,1,0,0s0,0,0,0,0,0,0,0,0,0,0,0h0l-.06.08a.13.13,0,0,0-.07.09h0l-.08.12-.07.12s0,0,0,0l0,0h0l-.06.1a.43.43,0,0,0,0,.12h0a.13.13,0,0,1,0,.11h0a.61.61,0,0,0-.07.1l-.05.12v0a1.07,1.07,0,0,0-.09.19l-.08.2s0,0,0,0h0a.17.17,0,0,1,0,.07.14.14,0,0,0,0,.07s0,0,0,0l0,.14a.17.17,0,0,0,0,.12s0,0,.06,0l0,0,0,0,0,0s0,0,0,0l.07,0a.05.05,0,0,1,0,0v0l.06,0a.76.76,0,0,1,.15-.23,1.4,1.4,0,0,0,.15-.24l0-.05,0,0v0l.1-.15a.7.7,0,0,1,.09-.17.67.67,0,0,1,.09-.21.66.66,0,0,0,.08-.21.09.09,0,0,0,0-.06A.44.44,0,0,1,55.92,30.19Zm-1.1.92s0,0,0,0A.08.08,0,0,1,54.82,31.11Zm.51-.83-.09.11,0,0a0,0,0,0,1,0,0h0s0,0,0,0Zm0,.08,0,0s0,0,0,0,0,0,0,0l0-.05h0l0,0S55.29,30.36,55.28,30.36Zm0,0h0Zm.13-.07h0s0,0,0,0S55.43,30.28,55.43,30.26Zm.1-.16a0,0,0,0,1,0,0h0A0,0,0,0,1,55.53,30.1Zm.26-.38h0a.35.35,0,0,0,0-.08.25.25,0,0,0,0-.07.08.08,0,0,1,0,.07S55.79,29.68,55.79,29.72ZM56,30.89s0,0,0,0h0v0Zm.1-1.3s0,0,0,0,0,0,0,0l0,0A.08.08,0,0,0,56.08,29.59Zm.05-.05,0,0s0,0,0,0a0,0,0,0,1,0,0S56.14,29.52,56.13,29.54Zm1.28-2.84v0s0,0,0,0l0,.05s0,0,0,.05a.08.08,0,0,0,0,0h0l0,0a.1.1,0,0,0,0,0h-.05l0,0a.05.05,0,0,0-.06,0l-.15-.07-.13-.06a.71.71,0,0,1,0-.17c0-.05.07-.07.16-.06l0,0,0,0,.11,0,.07,0,.07,0,.11,0S57.38,26.7,57.41,26.7Zm0,1.71,0,0s0,0,0,0h0S57.43,28.4,57.43,28.41Zm0,0,0,0a0,0,0,0,0,0,0l0,0Zm.24-.22,0,0Zm.05,0a0,0,0,0,1,0,0,0,0,0,0,0,0,0,0,0,0,0,0,0,0S57.76,28.15,57.77,28.15ZM58,28l-.07,0a.11.11,0,0,1-.07,0s0,0,0,0,0,0,0,0,0,0,0,0a0,0,0,0,1,0,0l.06,0A.09.09,0,0,1,58,28Zm0,0,0,0a0,0,0,0,0,0,0h0l0,0v0S58,28,58,28Zm.27-.16s0,0,0,0l0,0A0,0,0,0,0,58.25,27.88Zm.11-.06,0,0s0,0,0,0,0,0,0,0S58.34,27.8,58.36,27.82Zm.43-.26a0,0,0,0,1,0,0h0Z"/><path class="cls-1" d="M61.65,28.22a.08.08,0,0,0-.07,0l-.06.08v0l-.11.09-.12.12h0s0,0,0,0a0,0,0,0,1,0,0,.1.1,0,0,0-.06.05.07.07,0,0,1,0,0l-.06.06-.07.06s0,0,0,0a.15.15,0,0,1-.1.05l-.15.1a.24.24,0,0,1-.13,0l-.11,0h-.07l-.15,0a.24.24,0,0,1-.16,0A.1.1,0,0,0,60,29l-.08,0a.1.1,0,0,1,0-.07.25.25,0,0,1-.12-.16.6.6,0,0,1-.05-.24,2.17,2.17,0,0,1,.08-.57,2.08,2.08,0,0,0-.21.21c-.07.08-.13.16-.2.23a.54.54,0,0,1-.09.12l-.09.08-.25.28h0v0l-.14.11a.7.7,0,0,1-.16.1.49.49,0,0,1-.17.06.32.32,0,0,1-.18-.06s-.07,0-.08,0,0,0-.06-.05a.18.18,0,0,1-.1-.09.37.37,0,0,1,0-.17.36.36,0,0,1,0-.14.58.58,0,0,1,.05-.14.86.86,0,0,1,.11-.28c.06-.09.1-.17.15-.24s.18-.23.27-.33a4.12,4.12,0,0,1,.28-.31l.1-.06a.39.39,0,0,1,.11-.06.09.09,0,0,0,.08,0s.06,0,.08,0a.82.82,0,0,1,.29.07.34.34,0,0,1,.17.2l.1-.07.11,0,0,0,0,0a.17.17,0,0,1,.14,0l.13.08h0l0,0a0,0,0,0,1,0,0,.81.81,0,0,1,0,.3,1.49,1.49,0,0,1-.11.28c0,.12,0,.25-.08.39a.64.64,0,0,0,0,.36,1.08,1.08,0,0,0,.46-.14l.36-.2.13-.1a.35.35,0,0,0,.11-.1h0a.37.37,0,0,0,.16-.09l.23-.21.23-.18q.1-.07.12-.06H62v0s0,0,0,0v0s0,0,0,0h0l0,0,0,0s0,0,0,0a.39.39,0,0,1,0,.06h0a.1.1,0,0,1,0,.05s0,0,0,.07l0,0Zm-2.13-.65a.38.38,0,0,0-.06-.17s-.08-.06-.15,0l-.13.14a.08.08,0,0,1,0,0s0,0,0,0l0,0,0,.06-.1.12a2.2,2.2,0,0,0-.17.25l-.14.26a.16.16,0,0,1,0,.07.19.19,0,0,0,0,.09h0s0,0,0,0a.34.34,0,0,1-.06.15.33.33,0,0,0,0,.15l.13-.08a.33.33,0,0,0,.11-.09,6,6,0,0,0,.43-.45l.41-.49a.1.1,0,0,0,0-.05s0,0,0,0v0Z"/><path class="cls-1" d="M63.37,29.18h0s0,0,0,0,0,0-.06,0l-.06.06s0,0,0,0,0,0-.06.05a.09.09,0,0,1-.09,0l-.05,0H63l-.09,0v0h0s0,0,0,0a.17.17,0,0,1-.1,0l-.12,0h0a.51.51,0,0,1-.4-.24.77.77,0,0,1-.1-.51,1,1,0,0,1,.17-.48l.24-.38a.68.68,0,0,0-.21,0,2.27,2.27,0,0,1-.25.06.08.08,0,0,0-.06,0H62a0,0,0,0,0,0,0s0,0,0,0a0,0,0,0,0,0-.06.11.11,0,0,1-.06-.1c0-.05,0-.07,0-.07a.48.48,0,0,1,0-.24.68.68,0,0,1,.1-.21.8.8,0,0,1,.15-.17l.15-.14.14,0,.15.07.06,0a.06.06,0,0,1,0,.06l0,.12s0,0,0,0l0,0a.14.14,0,0,1,0,.09l-.1.09a.12.12,0,0,0-.05.05.21.21,0,0,1,0,.06l-.07.07a.9.9,0,0,1,0,.09h.16l.08,0,.07,0,.14,0a.31.31,0,0,0,.13,0l.1.09.12.09v.12s0,.06,0,.08l0,.06a.35.35,0,0,0-.06.09l-.06.1a.24.24,0,0,1-.06.09.61.61,0,0,1,0,.12.54.54,0,0,0-.07.13,1.59,1.59,0,0,0-.06.3.36.36,0,0,0,0,.26l.15,0h.15l0,0L63,29h0a.31.31,0,0,0,.17-.07.65.65,0,0,1,.16-.09l0,0,0,0a.06.06,0,0,0,0,0s0,0,0,0l0,0a0,0,0,0,0,0,0,.1.1,0,0,0,.05,0s0,0,.06,0l.12-.11a.57.57,0,0,1,.13-.1l.18-.14a1.75,1.75,0,0,0,.24-.23l0-.06,0,0,0,0,.06,0,0-.08.05-.07.12,0c.06,0,.09,0,.09,0s0,0,0,0a.21.21,0,0,1-.06.18.75.75,0,0,0-.12.14l0,0a.05.05,0,0,1,0,0l0,0-.07.07a.23.23,0,0,0-.07.07.22.22,0,0,1-.07.06l-.1.11-.07.07-.07.07-.1.06-.05.06-.08.07-.08.07,0,0-.24.15c-.06,0-.09.06-.09.07h0S63.39,29.17,63.37,29.18ZM62.3,27.06a.13.13,0,0,1-.07.06l-.07.07.08-.06A.13.13,0,0,0,62.3,27.06Z"/><path class="cls-1" d="M70.07,28s0,0,0,.08a.53.53,0,0,0-.14.12l-.07.06s-.06.05-.06.06l0,0-.13.1-.06,0-.11.07-.25.17a1.31,1.31,0,0,1-.29.14h-.07l-.05,0h-.17a.09.09,0,0,0-.06,0,0,0,0,0,0,0,0,728836061900.33,728836061900.33,0,0,0-.1,0s0,0-.05,0,0,0,0,0,0,0,0,0h-.06a.1.1,0,0,0-.07,0h-.09v0a.69.69,0,0,0-.18,0h0s0,0,0,0l-.16,0-.16-.05a.52.52,0,0,1-.17-.12.93.93,0,0,1-.13-.15l0-.11,0-.1a.6.6,0,0,1,0-.12.52.52,0,0,1,0-.11,1.39,1.39,0,0,1,.05-.23.57.57,0,0,1,.12-.26l.17-.21.12-.15.1-.08a.3.3,0,0,0,.09-.1l.1-.06L68,27l.11-.09.11-.07.12-.05.06,0h.06l0,0h0a.57.57,0,0,0,.11.11.35.35,0,0,1,.11.1.1.1,0,0,1,.06.05s0,0,0,.07a.2.2,0,0,1,0,.11.49.49,0,0,1,0,.11s0,0,0,0v0a.15.15,0,0,1,0,.06.46.46,0,0,0-.07.07l0,0a.14.14,0,0,1,0,.06l-.08.08-.09.09a.14.14,0,0,1-.09.08l-.1.07s0,0,0,0a.83.83,0,0,1-.15.11l-.14.12a.65.65,0,0,0-.23.09.29.29,0,0,1-.24,0s0,0,0,0h0s0,0,0,.05,0,0,0,.05a.58.58,0,0,0,.15.11.44.44,0,0,0,.19.07.91.91,0,0,0,.54,0l.16,0a.83.83,0,0,0,.18-.05l.22-.1.1-.05s0,0,0,0h0l.2-.09.14-.1.16-.13.05,0,.08-.06.08-.06.06,0,.08-.08.15-.11.1-.06a.09.09,0,0,1,0,.07s0,0,0,0a.64.64,0,0,0-.06.11l0,.05,0,0Zm-1.66-.86,0,0-.06,0h0l0,0h0l-.06.05a.21.21,0,0,1-.08.06l-.08.05-.08.1a.3.3,0,0,0-.09.1.35.35,0,0,0-.14.13l-.16.17a1,1,0,0,0-.11.17,1.25,1.25,0,0,0,.28-.15l.28-.22.1-.07a.39.39,0,0,0,.08-.1.57.57,0,0,0,.16-.13l.15-.17a.16.16,0,0,1,0-.07.08.08,0,0,0,0-.07h0Z"/><path class="cls-1" d="M76.3,27.61v0h0v0h0l0,0a.18.18,0,0,0,0,.06h0a0,0,0,0,1,0,0,0,0,0,0,0,0,0,.13.13,0,0,0,0,.06.09.09,0,0,1,0,.06s0,0,0,0h0a.1.1,0,0,0,0,.05l0,.07s0,0,0,0,0,0,0,0l-.07.05v0l0,0-.12.08-.1,0a.18.18,0,0,0-.1,0s0,0,0,0h0l0,0,0,0s0,0,0,0,0,0-.07,0a.14.14,0,0,0-.07,0s0,0,0,0a.06.06,0,0,0,0,.06s0,0,0,0,0,0,0,0a.11.11,0,0,1-.07.06l0,0-.06,0-.06,0h0s0,0-.07,0,0,0,0,0h0l-.07,0-.11,0-.12,0H74.7a.88.88,0,0,1-.35.06l-.37,0h-.13a.19.19,0,0,0-.11,0h-.07a.43.43,0,0,1-.23,0h0s0-.05,0-.05,0,0,0,0,0,0,0,0l0,0s0,0,0,0a0,0,0,0,1,0,0s0,0,0,0l0,0a.06.06,0,0,1,0,0h0v0s0,0,0,0v0s0,0,0,0a0,0,0,0,1,0,0,.39.39,0,0,0-.1.19.88.88,0,0,1-.1.22l-.11.37c0,.05,0,.12-.06.24s-.07.23-.1.36-.07.24-.1.35a1.32,1.32,0,0,1-.07.23l0,.1,0,.11a.19.19,0,0,1,0,.08s0,0,0,.06a.32.32,0,0,1,0,.14h0s0,0,0,0a.06.06,0,0,0-.05,0h-.1l-.08,0a.1.1,0,0,0-.07,0,0,0,0,0,0,0,0H72a.05.05,0,0,1,0,0s0,0,0,0,0-.07,0-.09,0,0,0,0l0-.12a.51.51,0,0,0,0-.13c0-.08,0-.2.07-.35s.08-.31.13-.47.09-.32.13-.47.07-.26.09-.35a1.57,1.57,0,0,0,.1-.26l.09-.3v0l0,0,.1-.32a1.86,1.86,0,0,1,.1-.25l.09-.25.08-.25.09-.27a1.15,1.15,0,0,1,.12-.25h.12l.12,0a.27.27,0,0,1,.08.07.18.18,0,0,1,0,.13.21.21,0,0,1-.05.13.22.22,0,0,0-.06.13s0,.05,0,.1,0,.1,0,.16l0,.17.06,0,0,0s0,0,0,0a.71.71,0,0,0,.13-.12l.13-.12h0s0,0,0,0,0,0,0,0a0,0,0,0,1,0,0s0,0,0,0h0a.08.08,0,0,1,0,0s0,0,0,0,0,0,0,0,0,0,0-.05h0s0,0,0-.06v0l0,0s0,0,0,0,0,0,0,0l.06,0a.18.18,0,0,0,.07-.05h0a.24.24,0,0,1,.12-.08.19.19,0,0,0,.13-.09s.08,0,.1,0h0l.19-.07a.48.48,0,0,1,.21,0l0,0s0,0,0,0l0,0s0,0,0,0v0c.1,0,.15.05.17.12a.8.8,0,0,1,0,.27s0,0,0,0v0a0,0,0,0,1,0,0,.24.24,0,0,1,0,.19.34.34,0,0,0-.07.15.36.36,0,0,1-.11.13.28.28,0,0,0-.11.13s0,0,0,0a.61.61,0,0,0,0,.12.13.13,0,0,1-.09.07.31.31,0,0,1-.08.11.15.15,0,0,0-.07.07l-.15.15a.63.63,0,0,0-.14.12l.12,0,.22,0,.2,0a.44.44,0,0,0,.13-.05,1.88,1.88,0,0,0,.29-.14l.3-.13h0s0,0,0,0,0,0,0,0l.08,0,.08,0h0s0,0,0,0a.2.2,0,0,0,.08,0l.06,0h0s0,0,0,0,0,0,0,0h0l0,0h0l0,0a.11.11,0,0,0,0,0h0v0h0l0,0c0-.06,0-.09.06-.1l.1-.06s0,0,0,0a0,0,0,0,1,0,0v0a0,0,0,0,0,0,0Zm-2.8,1.14s0,0,0,0l0,0v0s0,0,0,0l0,0h.08s0,0,0,0h0s0,0,0,0,0,0,.06,0h.07s0,0,0,0l0,0h-.11Zm.41-.41s0,0,0,0l.17-.12.17-.15,0-.05,0-.06h0a.24.24,0,0,1,.06-.09l.07-.08h0l0,0s0,0,0-.06h0s0,0,0,0a1.82,1.82,0,0,1,.15-.27.8.8,0,0,0,.09-.33s-.06,0-.07,0a.08.08,0,0,1-.07,0h-.07a.16.16,0,0,1-.05.06l0,0h0s0,0,0,0h0s0,0,0,0l0,0h0s0,0,0,0l0,0a0,0,0,0,0,0,0s0,0,0,0h0v0l-.06.07a.1.1,0,0,1-.06.05v0h0s0,0,0,0h0l-.06,0a.09.09,0,0,0,0,.06,0,0,0,0,0,0,0s0,0,0,0,0,.06,0,.07l-.07.06s0,0,0,0a.1.1,0,0,1,0,0s0,0,0-.05a.35.35,0,0,0-.09.16.05.05,0,0,0-.05,0,.09.09,0,0,1,0,.05s0,0,0,0h0a.28.28,0,0,1-.09.14.34.34,0,0,0-.09.14v0a.37.37,0,0,1-.06.1s0,.06-.06.05v0s0,0,0,0,0,0,0,0v0a0,0,0,0,0,0,0,.24.24,0,0,1,.11.06l.11.09h.15v0l.07,0,.07,0a.07.07,0,0,0-.06,0h-.05A.05.05,0,0,1,73.91,28.34Zm-.45.28h0Zm.09-.6s0,0,0-.05l0,0A0,0,0,0,0,73.55,28Zm0-.08h0s0,0,0,0h0S73.58,27.93,73.59,27.94Zm0-.28,0,0S73.65,27.67,73.64,27.66Zm0,1.14s0,0,0,0,0,0,0,0h0s0,0,0,0S73.63,28.78,73.63,28.8Zm.16-.05a.06.06,0,0,0-.06,0h-.06l.06,0A0,0,0,0,0,73.79,28.75Zm.11-1.33h0l-.12.1a.52.52,0,0,0-.1.11Zm-.16.31s0,0,0,0l0,0,0,0S73.73,27.72,73.74,27.73Zm.08,0s0,0,0-.06S73.83,27.72,73.82,27.76Zm0,.63h0Zm0,0h0a0,0,0,0,0,0,0Zm.15,0s-.07,0-.08,0,0,0-.06,0a.1.1,0,0,0,.07,0l.07,0,.07-.06a.46.46,0,0,1,.07-.07.18.18,0,0,0-.09,0Zm-.14-.78s0,0,0,0,0,0,0,0A.05.05,0,0,0,73.85,27.63Zm.14-.14s-.07,0-.07.08a1.67,1.67,0,0,1,.23-.23l.26-.2a1.12,1.12,0,0,0-.22.16Zm0-.3s0,0,0,0Zm.14,0s0,0,0,0l0,0,0,0S74.13,27.17,74.13,27.19Zm0,1.1s0,0,0,0v0S74.13,28.27,74.13,28.29ZM74.19,27s0,0,0,0a0,0,0,0,0,0,0s0,0,0,0,0,0,0,0Zm0,.08s0,0,0,0Zm0-.08,0,0,0,0s0,0,0,0S74.23,27,74.22,27Zm.63-.24h0s0,0,0,0h0S74.85,26.78,74.85,26.8Zm.05,1.09h0Zm1,.19s0,0,0,0S75.88,28.07,75.89,28.08Zm.28-.25a.09.09,0,0,0,0,.08.08.08,0,0,1,0-.05A0,0,0,0,0,76.17,27.83Zm.13-.17h0Z"/><path class="cls-1" d="M77.73,29.08h0v0s0,0-.06,0l-.06.06s0,0,0,0l-.06,0a.1.1,0,0,1-.09,0s0,0,0,0h-.09l-.08,0v0h0s0,0,0,0h-.1l-.11,0h0a.51.51,0,0,1-.4-.24.77.77,0,0,1-.1-.51,1,1,0,0,1,.17-.48c.09-.13.17-.26.24-.38a.68.68,0,0,0-.21,0,1,1,0,0,1-.25.06l-.06,0v0h-.11s0,0,0,0,0,0,0,0a0,0,0,0,0,0-.06.11.11,0,0,1-.06-.1s0-.07,0-.07a.48.48,0,0,1,0-.24.68.68,0,0,1,.1-.21.8.8,0,0,1,.15-.17l.15-.13a.34.34,0,0,1,.14,0l.16.07,0,0a.06.06,0,0,1,0,.06L77,27l0,0,0,0a.14.14,0,0,1-.05.09.81.81,0,0,1-.1.09.12.12,0,0,0,0,0l0,.06a.22.22,0,0,0-.07.07.41.41,0,0,1-.05.09h.16l.09,0,.07,0,.13,0a.2.2,0,0,0,.13,0,.52.52,0,0,0,.11.1l.11.08a.28.28,0,0,1,0,.13.11.11,0,0,1,0,.07l0,.06-.06.09,0,.1-.07.09a.31.31,0,0,1-.05.12.54.54,0,0,0-.07.13,1.59,1.59,0,0,0-.06.3.4.4,0,0,0,0,.27l.15,0a.43.43,0,0,0,.16,0l0,0,0,0h0s0,0,0,0a.25.25,0,0,0,.17-.07.65.65,0,0,1,.16-.09l0,0,0,0a.06.06,0,0,0,0,0l0,0,0,0s0,0,0,0l0,0s.05-.05.06-.05l.12-.11a.91.91,0,0,1,.13-.1l.18-.14a1.75,1.75,0,0,0,.24-.23l0-.06,0,0,0,0,.06,0,0-.07a.22.22,0,0,1,0-.08l.12,0c.06,0,.09,0,.09,0s0,0,0,0a.19.19,0,0,1-.06.18L79,28s0,0,0,0a.05.05,0,0,1,0,0,.1.1,0,0,0,0,.05l-.07.06a.23.23,0,0,0-.07.07.11.11,0,0,1-.07.06l-.1.11-.07.08-.07.06-.1.07-.05.05-.08.07-.08.07,0,0-.24.15c-.06,0-.09.06-.08.07h-.06ZM76.66,27a.18.18,0,0,1-.07.05l-.07.07L76.6,27A.17.17,0,0,0,76.66,27Z"/><path class="cls-1" d="M81.65,27.93s0,0-.05.08a.53.53,0,0,0-.14.12l-.07.06s-.06,0-.06.06l0,0-.13.1-.06,0L81,28.5l-.25.17a1.57,1.57,0,0,1-.29.14h-.07l-.05,0h-.17a.09.09,0,0,0-.06,0h0a0,0,0,0,1,0,0,0,0,0,0,1,0,0s0,0,0,0,0,0,0,0v0h-.06a.1.1,0,0,0-.07,0h0s0,0,0,0v0a.59.59,0,0,0-.17,0h0s0,0,0,0l-.16,0-.16-.05a.52.52,0,0,1-.17-.12.93.93,0,0,1-.13-.15l-.05-.11,0-.1a.6.6,0,0,1,0-.12.52.52,0,0,1,0-.11,1.39,1.39,0,0,1,.05-.23.68.68,0,0,1,.11-.26l.18-.21.12-.15.1-.08a.47.47,0,0,0,.09-.1l.09-.06.1-.07.11-.09.11-.07.12-.05.06,0H80l0,0h0l.11.11a.35.35,0,0,1,.11.1.09.09,0,0,1,.06.06s0,0,0,.07a.17.17,0,0,1,0,.1.49.49,0,0,1,0,.11l0,0v0s0,.05-.06.06l-.06.07,0,.05s0,0,0,.06l-.08.08-.09.09a.17.17,0,0,1-.09.08.26.26,0,0,0-.1.07s0,0,0,.05a.83.83,0,0,1-.15.11l-.14.12a.65.65,0,0,0-.23.09.3.3,0,0,1-.25,0s0,0,0,0h0a0,0,0,0,0,0,.06s0,0,0,0a.58.58,0,0,0,.15.11.44.44,0,0,0,.19.07.91.91,0,0,0,.54,0l.16,0a.83.83,0,0,0,.18-.05l.22-.1.1,0s0,0,0,0h0l.2-.09.14-.1.16-.12,0,0,.08-.06.08-.06.06,0,.07-.08.16-.11.1-.06a.09.09,0,0,1,0,.07s0,0,0,0a.64.64,0,0,0-.06.11l0,.05,0,0ZM80,27.07l0,0-.06,0s0,0,0,0l0,0h0l-.06,0a.21.21,0,0,1-.08.06l-.08.05-.08.1a.3.3,0,0,0-.09.1.35.35,0,0,0-.14.13l-.16.17A1,1,0,0,0,79,28a1.25,1.25,0,0,0,.28-.15l.28-.22.1-.07a.39.39,0,0,0,.08-.1.57.57,0,0,0,.16-.13l.15-.17,0-.07a.06.06,0,0,0,0-.07h0Z"/><path class="cls-1" d="M83.68,28.41a.24.24,0,0,0-.11.06.41.41,0,0,1-.11.07v0h-.07s0,0,0,0v0l-.09.05a.16.16,0,0,1-.11,0v0s0,0-.07,0a.21.21,0,0,0-.12.05.34.34,0,0,0-.2.09.4.4,0,0,1-.22.09h0a1.73,1.73,0,0,1-.32,0,1.2,1.2,0,0,1-.32-.06l-.13-.05-.11-.06a.25.25,0,0,1-.14-.13,1.07,1.07,0,0,1-.09-.19.82.82,0,0,1,0-.28,1.24,1.24,0,0,1,.06-.29.44.44,0,0,1,.07-.17,1.3,1.3,0,0,0,.08-.17s.06-.06.09-.12h0a2.28,2.28,0,0,1,.22-.28,1.47,1.47,0,0,1,.26-.23,0,0,0,0,1,0,0s0,0,0,0a.31.31,0,0,1,.1-.05l.11-.06.07-.06a.1.1,0,0,1,.1,0,.11.11,0,0,1,.07,0l.07,0a0,0,0,0,0,0,0h0l0,0,.06,0L83,27a.33.33,0,0,1,.06.19.24.24,0,0,0,0,.17.26.26,0,0,0-.06.13,1,1,0,0,1-.06.14s0,0,0,0h0s0,0,0,0h0v0l0,0s-.06,0-.11-.06-.08-.09-.08-.12l0-.09.09-.17a.47.47,0,0,0,0-.16.52.52,0,0,0-.29.17,1.34,1.34,0,0,1-.23.25h0v0a1.1,1.1,0,0,0-.26.34c-.06.13-.12.26-.17.39s0,.09,0,.14v.15a.63.63,0,0,0,0,.14.14.14,0,0,0,.11.11.49.49,0,0,0,.34,0l.3-.1.45-.2a2.73,2.73,0,0,0,.41-.22h0a1.37,1.37,0,0,1,.21-.15l.22-.16a.66.66,0,0,0,.17-.12.41.41,0,0,1,.18-.12.05.05,0,0,1,0,0,0,0,0,0,0,0,0h0a.05.05,0,0,0,0,0,.09.09,0,0,1,0-.05h0l0-.05.07,0s0,0,0,.05,0,0,0,0h0s0,0,0,0h0v0h0a.07.07,0,0,0,0,.05v0h0v.08l0,0h0s0,0,0,0,0,0,0,0a.08.08,0,0,0-.06,0l0,0a.06.06,0,0,1,0-.06s0,0,0,0a.08.08,0,0,0,0,.05s0,.05,0,.06h0s-.06,0-.07,0l0,0s0,0,0,0h0s0,0,0,0a.16.16,0,0,0,0,.06s0,0,0,.06,0,0,0,0h0v0l0,0h0v0h0l0,0-.07.06s0,0,0,0,0,0,0,0h0l0,0a0,0,0,0,1,0,0s0,0,0,0h0a.29.29,0,0,0-.08.07.3.3,0,0,0-.07.11.08.08,0,0,0-.06,0l0,0h0S83.68,28.42,83.68,28.41Zm.78-.7a.08.08,0,0,0,0,0l0,0Zm.05-.19h0v0Zm0,0h0s0,0,0,0Z"/><path class="cls-1" d="M84.14,28.26s0,0,0,0,0,0,0,0a.19.19,0,0,0,0-.08.08.08,0,0,1,0-.05.08.08,0,0,0,0,0s0,0,0,0a.19.19,0,0,0,0-.07.1.1,0,0,1,0-.05,1.91,1.91,0,0,1,.16-.32l.17-.32.07-.1a.3.3,0,0,0,0-.1h0c0-.05,0-.07.11-.06L85,27a.11.11,0,0,1,0,0s0,0,0,.06,0,0,0,0a.06.06,0,0,1,0,0,.48.48,0,0,0-.07.18.89.89,0,0,1-.08.17l0,0,0,0a.46.46,0,0,0,0,.09.21.21,0,0,1,0,.12l-.1.24c0,.07-.07.15-.1.24s0,.15,0,.21a.25.25,0,0,0,0,.2,2,2,0,0,0,.32-.11l.28-.15.21-.16.06,0,.25-.18.21-.17.08-.05.07-.05.13-.1.12-.09a.08.08,0,0,1,0,0l0,0,0,0a.11.11,0,0,1,.07-.06.1.1,0,0,0,.08-.07s0,0,0,0,0,0,0,0,0,0,0,0l0,0a.1.1,0,0,0,0,0s0,0,0,0,0-.05,0-.05a.13.13,0,0,1,0,.05,0,0,0,0,1,0,0s0,0,0,0,0,0,0,.05,0,0,0,0a0,0,0,0,0,0,0s0,0,0,0,0,0,0,0v0s0,0,0,0,0,0,0,0v0l0,0a.07.07,0,0,0,0,.05l0,.06h0s0,0,0,0a.06.06,0,0,1,0,0,.25.25,0,0,1,0,.07s0,0,0,.05,0,0,0,0,0,0-.07,0l-.07.05-.09.1-.08.06-.08.06h0v0h0a0,0,0,0,0,0,0h0l0,.06a.27.27,0,0,1-.08.07v0s0,0,0,0v0h0s0,0,0,0h0s0,0,0,0l0,0s0,0,0,0,0,0,0,0a0,0,0,0,1,0,0l0,0,0,0,0,0a0,0,0,0,0,0,0h0l0,0s0,0-.07,0a.18.18,0,0,1-.09.08l-.12.05a.48.48,0,0,1-.18.08l-.19,0h-.22l-.15,0a.16.16,0,0,1-.11,0,.2.2,0,0,1-.09-.09l-.06-.09s0,0,0,0,0,0,0,0h0v0l0,0a.06.06,0,0,1,0-.07,0,0,0,0,0,0-.06s0,0,0,.06,0,0,0,0a0,0,0,0,1,0,0,.3.3,0,0,1,0-.11h0a.09.09,0,0,1,0-.06.14.14,0,0,0,0-.06h0v0a.11.11,0,0,1,0-.1v0a.08.08,0,0,1,0,0A0,0,0,0,0,84.14,28.26Zm1.28-1.79a0,0,0,0,0,0,0s0,0,0,0a.22.22,0,0,0-.05.08.08.08,0,0,1-.08,0l-.06.05h0l0,0a0,0,0,0,0,0,0L85,26.62l-.1-.05a.59.59,0,0,1,0-.13c0-.05,0-.06.11-.05s0,0,0,0a0,0,0,0,0,0,0l.17,0a.61.61,0,0,0,.17,0S85.39,26.47,85.42,26.47Zm.23,2h0a0,0,0,0,0,0,0Zm.83-.72a.05.05,0,0,0,0,0s0,0,0,0a.05.05,0,0,1,0,0A0,0,0,0,0,86.48,27.75Zm.08,0s0,0,0,0Z"/><path class="cls-1" d="M86.24,28.64a.15.15,0,0,1,.06-.09l.08-.09,0,0,0,0a.2.2,0,0,0,.13-.14s0,0,.06,0,0,0,.06-.05h0a0,0,0,0,0,0,0,.08.08,0,0,1,0,0h0s0,0,0,0a.1.1,0,0,1,0,0,.1.1,0,0,0,0,0s0,0,0,0A.35.35,0,0,1,86.9,28,.21.21,0,0,0,87,28a.72.72,0,0,0,.19-.11.86.86,0,0,1,.19-.11,1,1,0,0,0,0-.3.7.7,0,0,0-.07-.3l-.07.07-.09.1-.09.08-.11.11-.14.12-.11.1-.09.06-.1.11s-.06,0-.09,0l0,0h0l0,0s0,0,0,0h0a.08.08,0,0,1,0,0s0,0,0,0a.27.27,0,0,0,.08-.07.16.16,0,0,0,0-.06.21.21,0,0,1,0-.07s0,0,.07,0l.07-.05a.05.05,0,0,0,0,0,.08.08,0,0,1,0,0l.06,0,0,0,.12-.15a.6.6,0,0,0,.11-.12.3.3,0,0,1,.19-.18.22.22,0,0,1,.19,0,.32.32,0,0,1,.16,0,.48.48,0,0,1,.09.13.19.19,0,0,1,0,.09l0,.14c0,.05,0,.1,0,.14s0,.09,0,.12a.5.5,0,0,0,.16,0l.24-.08.24-.08a.5.5,0,0,1,.16,0l0,0a0,0,0,0,0,0,0h0l.11,0a.16.16,0,0,0,.11-.05h0l0,0v0h0s0,0,0,0a.33.33,0,0,0,.14,0h.23l.11,0s0,0,0,0,0,0,0,0v0h0s0,0,0,0,0,0,0,0l0,0a0,0,0,0,1,0,0,.11.11,0,0,1-.08,0h0s0,0,0,0h0a.11.11,0,0,1-.08,0s0,0-.06.05l-.13,0a.57.57,0,0,1-.15,0l0,0a.06.06,0,0,0-.07,0l-.07,0a.16.16,0,0,0-.12,0l-.13,0-.61.25-.13.07a.2.2,0,0,0-.11.09.43.43,0,0,1,0,.16.26.26,0,0,0,0,.14l0,0a.14.14,0,0,1,0,.06s0,0,0,0,0,0,0,0a.36.36,0,0,1,0,.09.13.13,0,0,1-.07.09s0,0,0,0a0,0,0,0,0,0,0l0,0a0,0,0,0,0,0,0s0,0,0,0h0s0,0,0,0,0,0,0,0l-.08.09a.86.86,0,0,1-.07.1h0s0,0,0,0-.15.15-.23.21a.72.72,0,0,1-.27.16s0,0,0,0h0s0,0,0,0h0s0,0-.06,0l0,0s0,0,0,0v0h-.06a.12.12,0,0,1-.08,0h0a.42.42,0,0,1-.26-.05.5.5,0,0,1-.17-.15,0,0,0,0,1,0,0s0,0,0,0,0,0,0,0v0s0,0,0,0,0,0,0,0,0,0,0,0,0,0,0,0,0,0,0,0v0a.08.08,0,0,1,0,0,.06.06,0,0,1,0,0,.22.22,0,0,1,0-.16v.05a.22.22,0,0,0,.06-.07l0-.13s0,0,0,0A.05.05,0,0,1,86.24,28.64Zm.06-.06s0,0,0,0A.06.06,0,0,1,86.3,28.58Zm.59-.13h0a.71.71,0,0,0-.13.12.93.93,0,0,1-.13.15s0,0,0,0v0h0s0,0-.06.06,0,0,0,0l-.08.09a.18.18,0,0,0-.07.11,0,0,0,0,1,0,0v0l.17-.07.17-.07s0,0,0,0v0a1.63,1.63,0,0,0,.27-.31,1.87,1.87,0,0,0,.22-.39h0l-.16.13A1.41,1.41,0,0,1,86.89,28.45Zm-.14.91a.17.17,0,0,0,.06-.06l0,0S86.75,29.33,86.75,29.36Z"/><path class="cls-1" d="M90.65,27.06s0,0,0,.05a1.18,1.18,0,0,1,0,.22c0,.1,0,.2,0,.32a1.09,1.09,0,0,1-.1.32l.23,0,.1,0,.14-.05a.42.42,0,0,0,.14-.06l.16-.06.12,0,.15-.06.13-.07.18-.13h0l0,0,0,0,.08-.06.11-.06.08,0s0,0,0,0l0,.07h0a.17.17,0,0,1,0,.05.41.41,0,0,1,0,.09.76.76,0,0,1-.09.09l-.09.06s-.05,0-.06.06a.17.17,0,0,1-.06.06l0,0s0,0,0,0,0,0,0,0,0,0,0,0l-.06.06a.19.19,0,0,1-.08.07l0,0s0,0,0,0l0,0h0l0,0-.3.14-.07.05-.09,0L91,28.2h-.11l-.07,0-.07,0-.23,0a.6.6,0,0,0-.16.05l0,.06,0,0s0,0,0,0a.11.11,0,0,0,0,.05h0a0,0,0,0,1,0,0,.5.5,0,0,1-.07.13.44.44,0,0,0-.08.11s0,0,0,0l0,0c0,.05-.07.08-.1.08a.14.14,0,0,0-.09,0h0s0,0,0,0a0,0,0,0,1,0,0,1.32,1.32,0,0,1-.5,0h0s0,0,0,0h0l0,0,0,0a.37.37,0,0,1-.18-.21l0-.05s0,0,0,0a.22.22,0,0,1,0-.13.31.31,0,0,1,0-.16,1.73,1.73,0,0,1,.07-.31l.1-.22c0-.05,0-.11.07-.15s0-.07.05-.07,0,0,0,0,0,0,0-.05a1.28,1.28,0,0,1,.14-.21,1.73,1.73,0,0,1,.15-.2l.16-.15.13-.08.14-.09s.06,0,.07,0h.07s0,0,0,0h0s0,0,0,0,0,0,0,0a.06.06,0,0,1,0,0,0,0,0,0,0,0,0h0s0,0,0,0a.13.13,0,0,1,.08,0l0,0s0,0,0,0,0,0,0,0,0,0,0,0a.19.19,0,0,1,.1,0l.1.08v0a.05.05,0,0,0,0,0h0v0l0,0S90.61,27,90.65,27.06Zm-.71,1.22a.4.4,0,0,1-.23-.17c0-.09-.1-.17-.13-.24a.12.12,0,0,0-.07.05l-.07.06h0s0,0,0,0h0v0h0a.24.24,0,0,0-.07.12l0,.09a.31.31,0,0,0,0,.08s0,.09,0,.14a.81.81,0,0,0,0,.16.51.51,0,0,0,0,.13.09.09,0,0,0,.06.06h.12l.07,0h.05l.2-.12.1-.09,0-.08a.38.38,0,0,1,.09-.09l0-.1h-.15Zm-.5-.29s0,0,0,0h0s0,0,0,0h0S89.43,28,89.44,28Zm.84-.89-.08.07-.11.1-.1.12-.08.11h0s0,0,0,0a.05.05,0,0,0,0,0,0,0,0,0,0,0,0h0a.08.08,0,0,1,0,0l0,.11a.61.61,0,0,0,.07.14.4.4,0,0,0,.1.12.15.15,0,0,0,.14,0c0-.05,0-.12.06-.22a2.5,2.5,0,0,0,0-.29,1.32,1.32,0,0,0,0-.27C90.33,27.16,90.31,27.12,90.28,27.1Z"/><path class="cls-1" d="M69.28,25.2a.25.25,0,0,1,.22.26.33.33,0,0,1-.1.22l-.53.59a.3.3,0,0,1-.19-.13Z"/><path class="cls-1" d="M29,30.42h-.16a1.25,1.25,0,0,1-1.08-1.13,23,23,0,0,0-.4-2.68,21.22,21.22,0,0,1-8.91,2.12c-5.16,0-12.33-2.37-17.14-13.64A1.24,1.24,0,0,1,2.5,13.34a1.21,1.21,0,0,1,.93.42c.07.07,6.8,7.52,14.93,7.52a13.19,13.19,0,0,0,3.84-.58c-.56-.26-1.3-.59-2.29-1a1.25,1.25,0,0,1,.27-2.39l13.34-2.26.21,0a1.26,1.26,0,0,1,1.18,1.68L30.22,29.6A1.27,1.27,0,0,1,29,30.42Z"/><path class="cls-1" d="M2.5,14.59s7,7.94,15.86,7.94A14.37,14.37,0,0,0,24.86,21c-.07-.09.65-.31-4.47-2.42l13.34-2.26L29,29.17s-.36-3.93-1-4.29a20.73,20.73,0,0,1-9.54,2.59c-5.26,0-11.59-2.58-16-12.88m31.23,1.7h0M2.5,12.09A2.49,2.49,0,0,0,.2,15.57C5.28,27.47,13,30,18.49,30a22.08,22.08,0,0,0,8-1.59c0,.34.08.69.11,1a2.51,2.51,0,0,0,2.17,2.25l.33,0A2.5,2.5,0,0,0,31.39,30L36,17.25a2.35,2.35,0,0,0,.19-1,2.49,2.49,0,0,0-2.47-2.5h-.13l-.36,0L20,16.09a2.49,2.49,0,0,0-2.07,2.18A2.53,2.53,0,0,0,18.37,20h0c-7.6,0-13.93-7-14-7.1a2.51,2.51,0,0,0-1.87-.84Z"/><path class="cls-1" d="M24,1.54s-3.62,2-6.54,2-6.53-2-6.53-2l.89-.42H23.09Z"/><path class="cls-1" d="M41.18,8V18.51h6.29V20.9H38.35V8Z"/><path class="cls-1" d="M52.8,8V20.9H50V8Z"/><path class="cls-1" d="M58.53,8l5.39,8.65h0V8h2.66V20.9H63.77l-5.36-8.64h0V20.9H55.71V8Z"/><path class="cls-1" d="M72,17.72a2.13,2.13,0,0,0,.63.73,2.63,2.63,0,0,0,.91.42,4.32,4.32,0,0,0,1.08.13,6,6,0,0,0,.82-.06,2.47,2.47,0,0,0,.81-.25,1.7,1.7,0,0,0,.63-.49,1.25,1.25,0,0,0,.26-.81,1.12,1.12,0,0,0-.34-.85,2.81,2.81,0,0,0-.87-.54,10.56,10.56,0,0,0-1.23-.38l-1.39-.36a12.2,12.2,0,0,1-1.41-.44,4.87,4.87,0,0,1-1.23-.68,3,3,0,0,1-1.21-2.55,3.37,3.37,0,0,1,.42-1.72A3.71,3.71,0,0,1,71,8.65a4.86,4.86,0,0,1,1.56-.73,6.8,6.8,0,0,1,1.73-.23,8.18,8.18,0,0,1,1.94.22,5,5,0,0,1,1.66.74A3.67,3.67,0,0,1,79,9.94a4,4,0,0,1,.42,1.91H76.71a2.18,2.18,0,0,0-.24-1,1.6,1.6,0,0,0-.55-.6,2.42,2.42,0,0,0-.79-.31,4.85,4.85,0,0,0-1-.09,3.23,3.23,0,0,0-.68.08,1.74,1.74,0,0,0-.63.25,1.64,1.64,0,0,0-.46.45,1.22,1.22,0,0,0-.18.69,1.1,1.1,0,0,0,.15.61,1.25,1.25,0,0,0,.57.44,7.18,7.18,0,0,0,1.17.39l2,.51c.24,0,.58.13,1,.26a4.91,4.91,0,0,1,1.27.61,3.61,3.61,0,0,1,1.09,1.11,3.14,3.14,0,0,1,.46,1.78,3.88,3.88,0,0,1-.34,1.64,3.51,3.51,0,0,1-1,1.31,4.76,4.76,0,0,1-1.68.86,7.76,7.76,0,0,1-2.32.31,8.39,8.39,0,0,1-2.07-.26,5.16,5.16,0,0,1-1.77-.83,3.9,3.9,0,0,1-1.22-1.42A4.2,4.2,0,0,1,69,16.62h2.75A2.45,2.45,0,0,0,72,17.72Z"/><path class="cls-1" d="M81.6,8h9.71l-.08.36H86.57L83.9,20.9h-.38L86.19,8.36H81.53Z"/><path class="cls-1" d="M90.6,16.24q0,.39-.09.69a6.26,6.26,0,0,0,0,.63,3.23,3.23,0,0,0,.3,1.43,2.84,2.84,0,0,0,.83,1,3.45,3.45,0,0,0,1.22.63,5.42,5.42,0,0,0,1.54.19,9.36,9.36,0,0,0,1.31-.11,4,4,0,0,0,1.45-.55,4.64,4.64,0,0,0,1.32-1.33,6.57,6.57,0,0,0,.94-2.42L101.23,8h.38L99.8,16.33c-.07.3-.16.63-.26,1a6.41,6.41,0,0,1-.42,1.09,5.45,5.45,0,0,1-.65,1,3.9,3.9,0,0,1-1,.89,4.87,4.87,0,0,1-1.34.61,6.69,6.69,0,0,1-3.44,0,3.7,3.7,0,0,1-1.35-.66,3.22,3.22,0,0,1-.92-1.14,3.55,3.55,0,0,1-.35-1.62,6,6,0,0,1,.06-.91c0-.25.08-.55.14-.88L92,8h.38Z"/><path class="cls-1" d="M107.25,8a5.55,5.55,0,0,1,1.12.12,3.09,3.09,0,0,1,1,.46,2.58,2.58,0,0,1,.79.93A3.27,3.27,0,0,1,110.5,11a4.15,4.15,0,0,1-.31,1.55,3.44,3.44,0,0,1-.78,1.15,3.52,3.52,0,0,1-1.18.74,5,5,0,0,1-1.49.27v0a2.18,2.18,0,0,1,1.47.79,3,3,0,0,1,.48,1.89l0,1c0,.35,0,.7,0,1.06a5.32,5.32,0,0,0,0,.69,3.07,3.07,0,0,0,.14.67h-.36a2.48,2.48,0,0,1-.16-.68,5.12,5.12,0,0,1,0-.69c0-.35,0-.7,0-1s0-.69,0-1.05a2.87,2.87,0,0,0-.24-1.34,2.19,2.19,0,0,0-.67-.79,2.61,2.61,0,0,0-.89-.38,4.88,4.88,0,0,0-.89-.09h-4.43l-1.27,6H99.6L102.28,8Zm-1.61,6.48a11.51,11.51,0,0,0,1.31-.09,4.3,4.3,0,0,0,1.47-.44A3.06,3.06,0,0,0,110.14,11a2.8,2.8,0,0,0-.29-1.43,2.28,2.28,0,0,0-.77-.8,2.57,2.57,0,0,0-1-.36,5.83,5.83,0,0,0-1-.08H102.6l-1.28,6.12Z"/></g></g></svg>