<svg width="50" height="50" viewBox="0 0 50 50" fill="none" xmlns="http://www.w3.org/2000/svg">
<rect width="50" height="50" rx="5" fill="#C72C41"/>
<path d="M34.412 15.528L32.756 18.804C31.22 17.268 29.54 16.5 27.716 16.5C26.108 16.5 24.764 17.136 23.684 18.408C22.772 19.536 22.16 20.94 21.848 22.62H31.352L30.416 24.924H21.596C21.572 25.044 21.56 25.212 21.56 25.428C21.56 25.644 21.56 25.92 21.56 26.256C21.56 26.88 21.572 27.252 21.596 27.372H29.912L29.012 29.64H21.776C22.064 31.584 22.676 33.108 23.612 34.212C24.692 35.58 26.156 36.264 28.004 36.264C29.204 36.264 30.2 36.072 30.992 35.688C31.712 35.328 32.528 34.728 33.44 33.888V37.884C31.808 38.94 29.996 39.468 28.004 39.468C24.788 39.468 22.28 38.484 20.48 36.516C18.92 34.812 17.948 32.52 17.564 29.64H14.792L15.764 27.372H17.384C17.36 27.204 17.336 27.024 17.312 26.832C17.312 26.64 17.312 26.436 17.312 26.22C17.312 26.052 17.312 25.86 17.312 25.644C17.336 25.428 17.36 25.188 17.384 24.924H14.792L15.728 22.62H17.636C18.236 19.86 19.328 17.676 20.912 16.068C22.76 14.22 25.124 13.296 28.004 13.296C30.092 13.296 32.228 14.04 34.412 15.528Z" fill="white"/>
</svg>
