<svg width="51" height="52" viewBox="0 0 51 52" fill="none" xmlns="http://www.w3.org/2000/svg">
<path d="M47.1408 0.625H3.85915C1.73036 0.625 0 2.34688 0 4.46523V47.5234C0 49.6531 1.73036 51.375 3.85915 51.375H47.1295C49.2583 51.375 50.9886 49.6531 50.9886 47.5348V4.46523C51 2.34688 49.2696 0.625 47.1408 0.625ZM27.0482 41.3043C18.5558 42.1539 10.9741 35.9914 10.1203 27.5406H20.8667V29.8516C20.8667 30.2707 21.2083 30.6219 21.6408 30.6219H29.3705C29.7917 30.6219 30.1446 30.282 30.1446 29.8516V22.1598C30.1446 21.7406 29.8031 21.3895 29.3705 21.3895H21.6408C21.2196 21.3895 20.8667 21.7293 20.8667 22.1598V24.4707H10.1203C10.9172 16.609 17.5654 10.6277 25.5 10.6277C33.4346 10.6277 40.0828 16.609 40.8797 24.4707C41.7335 32.9102 35.5406 40.4547 27.0482 41.3043V41.3043Z" fill="black"/>
</svg>
